<svg width="165" height="66" viewBox="0 0 165 66" fill="none" xmlns="http://www.w3.org/2000/svg">
<g clip-path="url(#clip0_37_5)">
<g clip-path="url(#clip1_37_5)">
<path d="M4 17C1.79375 17 0 18.7938 0 21V39C0 41.2062 1.79375 43 4 43H15L14.3313 45H10C8.89375 45 8 45.8937 8 47C8 48.1063 8.89375 49 10 49H26C27.1063 49 28 48.1063 28 47C28 45.8937 27.1063 45 26 45H21.6688L21 43H32C34.2062 43 36 41.2062 36 39V21C36 18.7938 34.2062 17 32 17H4ZM32 21V35H4V21H32Z" fill="white"/>
</g>
<path d="M57.74 10.9V14.02H53.98V25H50.06V14.02H46.34V10.9H57.74ZM69.9103 19.26C69.9103 19.5667 69.8903 19.8733 69.8503 20.18H62.4303C62.4703 20.7933 62.637 21.2533 62.9303 21.56C63.237 21.8533 63.6236 22 64.0903 22C64.7436 22 65.2103 21.7067 65.4903 21.12H69.6703C69.497 21.8933 69.157 22.5867 68.6503 23.2C68.157 23.8 67.5303 24.2733 66.7703 24.62C66.0103 24.9667 65.1703 25.14 64.2503 25.14C63.1436 25.14 62.157 24.9067 61.2903 24.44C60.437 23.9733 59.7636 23.3067 59.2703 22.44C58.7903 21.5733 58.5503 20.5533 58.5503 19.38C58.5503 18.2067 58.7903 17.1933 59.2703 16.34C59.7503 15.4733 60.417 14.8067 61.2703 14.34C62.137 13.8733 63.1303 13.64 64.2503 13.64C65.357 13.64 66.337 13.8667 67.1903 14.32C68.0436 14.7733 68.7103 15.4267 69.1903 16.28C69.6703 17.12 69.9103 18.1133 69.9103 19.26ZM65.9103 18.28C65.9103 17.8 65.7503 17.4267 65.4303 17.16C65.1103 16.88 64.7103 16.74 64.2303 16.74C63.7503 16.74 63.357 16.8733 63.0503 17.14C62.7436 17.3933 62.5436 17.7733 62.4503 18.28H65.9103ZM70.8745 19.38C70.8745 18.22 71.1145 17.2067 71.5945 16.34C72.0745 15.4733 72.7412 14.8067 73.5945 14.34C74.4612 13.8733 75.4479 13.64 76.5545 13.64C77.9812 13.64 79.1812 14.0333 80.1545 14.82C81.1279 15.5933 81.7545 16.68 82.0345 18.08H77.8745C77.6345 17.3467 77.1679 16.98 76.4745 16.98C75.9812 16.98 75.5879 17.1867 75.2945 17.6C75.0145 18 74.8745 18.5933 74.8745 19.38C74.8745 20.1667 75.0145 20.7667 75.2945 21.18C75.5879 21.5933 75.9812 21.8 76.4745 21.8C77.1812 21.8 77.6479 21.4333 77.8745 20.7H82.0345C81.7545 22.0867 81.1279 23.1733 80.1545 23.96C79.1812 24.7467 77.9812 25.14 76.5545 25.14C75.4479 25.14 74.4612 24.9067 73.5945 24.44C72.7412 23.9733 72.0745 23.3067 71.5945 22.44C71.1145 21.5733 70.8745 20.5533 70.8745 19.38ZM91.043 13.68C92.323 13.68 93.3363 14.1133 94.083 14.98C94.843 15.8333 95.223 16.9933 95.223 18.46V25H91.303V18.98C91.303 18.34 91.1363 17.84 90.803 17.48C90.4696 17.1067 90.023 16.92 89.463 16.92C88.8763 16.92 88.4163 17.1067 88.083 17.48C87.7496 17.84 87.583 18.34 87.583 18.98V25H83.663V10.2H87.583V15.38C87.9296 14.8733 88.3963 14.4667 88.983 14.16C89.583 13.84 90.2696 13.68 91.043 13.68ZM111.094 10.9L106.234 25H101.214L96.3339 10.9H100.534L103.734 21.08L106.914 10.9H111.094ZM114.295 12.74C113.602 12.74 113.042 12.5533 112.615 12.18C112.202 11.7933 111.995 11.3133 111.995 10.74C111.995 10.1533 112.202 9.66667 112.615 9.28C113.042 8.89333 113.602 8.7 114.295 8.7C114.975 8.7 115.522 8.89333 115.935 9.28C116.362 9.66667 116.575 10.1533 116.575 10.74C116.575 11.3133 116.362 11.7933 115.935 12.18C115.522 12.5533 114.975 12.74 114.295 12.74ZM116.235 13.78V25H112.315V13.78H116.235ZM123.248 25.14C122.234 25.14 121.328 24.9733 120.528 24.64C119.741 24.2933 119.114 23.8267 118.648 23.24C118.194 22.64 117.941 21.9667 117.888 21.22H121.688C121.741 21.58 121.908 21.86 122.188 22.06C122.468 22.26 122.814 22.36 123.228 22.36C123.548 22.36 123.801 22.2933 123.988 22.16C124.174 22.0267 124.268 21.8533 124.268 21.64C124.268 21.36 124.114 21.1533 123.808 21.02C123.501 20.8867 122.994 20.74 122.288 20.58C121.488 20.42 120.821 20.24 120.288 20.04C119.754 19.84 119.288 19.5133 118.888 19.06C118.501 18.6067 118.308 17.9933 118.308 17.22C118.308 16.5533 118.488 15.9533 118.848 15.42C119.208 14.8733 119.734 14.44 120.428 14.12C121.134 13.8 121.981 13.64 122.968 13.64C124.434 13.64 125.588 14 126.428 14.72C127.268 15.44 127.754 16.3867 127.888 17.56H124.348C124.281 17.2 124.121 16.9267 123.868 16.74C123.628 16.54 123.301 16.44 122.888 16.44C122.568 16.44 122.321 16.5 122.148 16.62C121.988 16.74 121.908 16.9067 121.908 17.12C121.908 17.3867 122.061 17.5933 122.368 17.74C122.674 17.8733 123.168 18.0133 123.848 18.16C124.661 18.3333 125.334 18.5267 125.868 18.74C126.414 18.9533 126.888 19.3 127.288 19.78C127.701 20.2467 127.908 20.8867 127.908 21.7C127.908 22.3533 127.714 22.94 127.328 23.46C126.954 23.98 126.414 24.3933 125.708 24.7C125.014 24.9933 124.194 25.14 123.248 25.14ZM131.815 12.74C131.122 12.74 130.562 12.5533 130.135 12.18C129.722 11.7933 129.515 11.3133 129.515 10.74C129.515 10.1533 129.722 9.66667 130.135 9.28C130.562 8.89333 131.122 8.7 131.815 8.7C132.495 8.7 133.042 8.89333 133.455 9.28C133.882 9.66667 134.095 10.1533 134.095 10.74C134.095 11.3133 133.882 11.7933 133.455 12.18C133.042 12.5533 132.495 12.74 131.815 12.74ZM133.755 13.78V25H129.835V13.78H133.755ZM141.207 25.14C140.087 25.14 139.081 24.9067 138.187 24.44C137.307 23.9733 136.614 23.3067 136.107 22.44C135.601 21.5733 135.347 20.5533 135.347 19.38C135.347 18.22 135.601 17.2067 136.107 16.34C136.627 15.4733 137.327 14.8067 138.207 14.34C139.101 13.8733 140.107 13.64 141.227 13.64C142.347 13.64 143.347 13.8733 144.227 14.34C145.121 14.8067 145.821 15.4733 146.327 16.34C146.847 17.2067 147.107 18.22 147.107 19.38C147.107 20.54 146.847 21.56 146.327 22.44C145.821 23.3067 145.121 23.9733 144.227 24.44C143.334 24.9067 142.327 25.14 141.207 25.14ZM141.207 21.74C141.754 21.74 142.207 21.54 142.567 21.14C142.941 20.7267 143.127 20.14 143.127 19.38C143.127 18.62 142.941 18.04 142.567 17.64C142.207 17.24 141.761 17.04 141.227 17.04C140.694 17.04 140.247 17.24 139.887 17.64C139.527 18.04 139.347 18.62 139.347 19.38C139.347 20.1533 139.521 20.74 139.867 21.14C140.214 21.54 140.661 21.74 141.207 21.74ZM156.042 13.68C157.335 13.68 158.362 14.1133 159.122 14.98C159.882 15.8333 160.262 16.9933 160.262 18.46V25H156.342V18.98C156.342 18.34 156.175 17.84 155.842 17.48C155.509 17.1067 155.062 16.92 154.502 16.92C153.915 16.92 153.455 17.1067 153.122 17.48C152.789 17.84 152.622 18.34 152.622 18.98V25H148.702V13.78H152.622V15.38C152.969 14.8733 153.435 14.4667 154.022 14.16C154.609 13.84 155.282 13.68 156.042 13.68ZM52.44 55.14C50.8 55.14 49.4533 54.7533 48.4 53.98C47.3467 53.1933 46.78 52.0733 46.7 50.62H50.88C50.92 51.1133 51.0667 51.4733 51.32 51.7C51.5733 51.9267 51.9 52.04 52.3 52.04C52.66 52.04 52.9533 51.9533 53.18 51.78C53.42 51.5933 53.54 51.34 53.54 51.02C53.54 50.6067 53.3467 50.2867 52.96 50.06C52.5733 49.8333 51.9467 49.58 51.08 49.3C50.16 48.9933 49.4133 48.7 48.84 48.42C48.28 48.1267 47.7867 47.7067 47.36 47.16C46.9467 46.6 46.74 45.8733 46.74 44.98C46.74 44.0733 46.9667 43.3 47.42 42.66C47.8733 42.0067 48.5 41.5133 49.3 41.18C50.1 40.8467 51.0067 40.68 52.02 40.68C53.66 40.68 54.9667 41.0667 55.94 41.84C56.9267 42.6 57.4533 43.6733 57.52 45.06H53.26C53.2467 44.6333 53.1133 44.3133 52.86 44.1C52.62 43.8867 52.3067 43.78 51.92 43.78C51.6267 43.78 51.3867 43.8667 51.2 44.04C51.0133 44.2133 50.92 44.46 50.92 44.78C50.92 45.0467 51.02 45.28 51.22 45.48C51.4333 45.6667 51.6933 45.8333 52 45.98C52.3067 46.1133 52.76 46.2867 53.36 46.5C54.2533 46.8067 54.9867 47.1133 55.56 47.42C56.1467 47.7133 56.6467 48.1333 57.06 48.68C57.4867 49.2133 57.7 49.8933 57.7 50.72C57.7 51.56 57.4867 52.3133 57.06 52.98C56.6467 53.6467 56.04 54.1733 55.24 54.56C54.4533 54.9467 53.52 55.14 52.44 55.14ZM64.7423 55.14C63.6223 55.14 62.6157 54.9067 61.7223 54.44C60.8423 53.9733 60.149 53.3067 59.6423 52.44C59.1357 51.5733 58.8823 50.5533 58.8823 49.38C58.8823 48.22 59.1357 47.2067 59.6423 46.34C60.1623 45.4733 60.8623 44.8067 61.7423 44.34C62.6357 43.8733 63.6423 43.64 64.7623 43.64C65.8823 43.64 66.8823 43.8733 67.7623 44.34C68.6557 44.8067 69.3557 45.4733 69.8623 46.34C70.3823 47.2067 70.6423 48.22 70.6423 49.38C70.6423 50.54 70.3823 51.56 69.8623 52.44C69.3557 53.3067 68.6557 53.9733 67.7623 54.44C66.869 54.9067 65.8623 55.14 64.7423 55.14ZM64.7423 51.74C65.289 51.74 65.7423 51.54 66.1023 51.14C66.4757 50.7267 66.6623 50.14 66.6623 49.38C66.6623 48.62 66.4757 48.04 66.1023 47.64C65.7423 47.24 65.2957 47.04 64.7623 47.04C64.229 47.04 63.7823 47.24 63.4223 47.64C63.0623 48.04 62.8823 48.62 62.8823 49.38C62.8823 50.1533 63.0557 50.74 63.4023 51.14C63.749 51.54 64.1957 51.74 64.7423 51.74ZM76.1572 40.2V55H72.2372V40.2H76.1572ZM89.8695 43.78V55H85.9295V53.4C85.5962 53.9067 85.1362 54.32 84.5495 54.64C83.9629 54.9467 83.2895 55.1 82.5295 55.1C81.2229 55.1 80.1895 54.6733 79.4295 53.82C78.6829 52.9533 78.3095 51.78 78.3095 50.3V43.78H82.2095V49.8C82.2095 50.44 82.3762 50.9467 82.7095 51.32C83.0562 51.68 83.5095 51.86 84.0695 51.86C84.6429 51.86 85.0962 51.68 85.4295 51.32C85.7629 50.9467 85.9295 50.44 85.9295 49.8V43.78H89.8695ZM98.7205 51.66V55H97.0205C94.1538 55 92.7205 53.58 92.7205 50.74V47.04H91.3405V43.78H92.7205V41.06H96.6605V43.78H98.7005V47.04H96.6605V50.8C96.6605 51.1067 96.7271 51.3267 96.8605 51.46C97.0071 51.5933 97.2471 51.66 97.5805 51.66H98.7205ZM102.498 42.74C101.805 42.74 101.245 42.5533 100.818 42.18C100.405 41.7933 100.198 41.3133 100.198 40.74C100.198 40.1533 100.405 39.6667 100.818 39.28C101.245 38.8933 101.805 38.7 102.498 38.7C103.178 38.7 103.725 38.8933 104.138 39.28C104.565 39.6667 104.778 40.1533 104.778 40.74C104.778 41.3133 104.565 41.7933 104.138 42.18C103.725 42.5533 103.178 42.74 102.498 42.74ZM104.438 43.78V55H100.518V43.78H104.438ZM111.891 55.14C110.771 55.14 109.764 54.9067 108.871 54.44C107.991 53.9733 107.297 53.3067 106.791 52.44C106.284 51.5733 106.031 50.5533 106.031 49.38C106.031 48.22 106.284 47.2067 106.791 46.34C107.311 45.4733 108.011 44.8067 108.891 44.34C109.784 43.8733 110.791 43.64 111.911 43.64C113.031 43.64 114.031 43.8733 114.911 44.34C115.804 44.8067 116.504 45.4733 117.011 46.34C117.531 47.2067 117.791 48.22 117.791 49.38C117.791 50.54 117.531 51.56 117.011 52.44C116.504 53.3067 115.804 53.9733 114.911 54.44C114.017 54.9067 113.011 55.14 111.891 55.14ZM111.891 51.74C112.437 51.74 112.891 51.54 113.251 51.14C113.624 50.7267 113.811 50.14 113.811 49.38C113.811 48.62 113.624 48.04 113.251 47.64C112.891 47.24 112.444 47.04 111.911 47.04C111.377 47.04 110.931 47.24 110.571 47.64C110.211 48.04 110.031 48.62 110.031 49.38C110.031 50.1533 110.204 50.74 110.551 51.14C110.897 51.54 111.344 51.74 111.891 51.74ZM126.726 43.68C128.019 43.68 129.046 44.1133 129.806 44.98C130.566 45.8333 130.946 46.9933 130.946 48.46V55H127.026V48.98C127.026 48.34 126.859 47.84 126.526 47.48C126.192 47.1067 125.746 46.92 125.186 46.92C124.599 46.92 124.139 47.1067 123.806 47.48C123.472 47.84 123.306 48.34 123.306 48.98V55H119.386V43.78H123.306V45.38C123.652 44.8733 124.119 44.4667 124.706 44.16C125.292 43.84 125.966 43.68 126.726 43.68ZM137.877 55.14C136.863 55.14 135.957 54.9733 135.157 54.64C134.37 54.2933 133.743 53.8267 133.277 53.24C132.823 52.64 132.57 51.9667 132.517 51.22H136.317C136.37 51.58 136.537 51.86 136.817 52.06C137.097 52.26 137.443 52.36 137.857 52.36C138.177 52.36 138.43 52.2933 138.617 52.16C138.803 52.0267 138.897 51.8533 138.897 51.64C138.897 51.36 138.743 51.1533 138.437 51.02C138.13 50.8867 137.623 50.74 136.917 50.58C136.117 50.42 135.45 50.24 134.917 50.04C134.383 49.84 133.917 49.5133 133.517 49.06C133.13 48.6067 132.937 47.9933 132.937 47.22C132.937 46.5533 133.117 45.9533 133.477 45.42C133.837 44.8733 134.363 44.44 135.057 44.12C135.763 43.8 136.61 43.64 137.597 43.64C139.063 43.64 140.217 44 141.057 44.72C141.897 45.44 142.383 46.3867 142.517 47.56H138.977C138.91 47.2 138.75 46.9267 138.497 46.74C138.257 46.54 137.93 46.44 137.517 46.44C137.197 46.44 136.95 46.5 136.777 46.62C136.617 46.74 136.537 46.9067 136.537 47.12C136.537 47.3867 136.69 47.5933 136.997 47.74C137.303 47.8733 137.797 48.0133 138.477 48.16C139.29 48.3333 139.963 48.5267 140.497 48.74C141.043 48.9533 141.517 49.3 141.917 49.78C142.33 50.2467 142.537 50.8867 142.537 51.7C142.537 52.3533 142.343 52.94 141.957 53.46C141.583 53.98 141.043 54.3933 140.337 54.7C139.643 54.9933 138.823 55.14 137.877 55.14Z" fill="white"/>
</g>
<defs>
<clipPath id="clip0_37_5">
<rect width="165" height="66" fill="white"/>
</clipPath>
<clipPath id="clip1_37_5">
<rect width="36" height="32" fill="white" transform="translate(0 17)"/>
</clipPath>
</defs>
</svg>
