<svg width="431" height="216" viewBox="0 0 431 216" fill="none" xmlns="http://www.w3.org/2000/svg">
<g clip-path="url(#clip0_30_94)">
<path d="M289.063 216C302.068 216 315.054 215.767 328.02 215.302C346.547 214.636 365.705 213.949 383.512 204.075C395.968 197.169 407 186.089 415.415 172.031C421.04 162.503 425.164 152.166 427.642 141.384C432.266 121.753 432.109 101.299 427.183 81.7422C425.457 75.0368 423.077 68.5168 420.078 62.2757C407.093 35.3922 383.408 17.346 355.097 12.7648C354.863 12.7344 354.626 12.7294 354.392 12.7497C354.264 12.7565 354.137 12.7638 354.008 12.7584L353.841 12.7055C353.414 12.5571 352.976 12.4446 352.53 12.3691C308.867 5.87057 262.708 19.0193 219.048 50.3927C185.29 74.6538 140.551 87.7181 82.274 90.332L81.4467 90.3753C65.2238 91.307 49.5315 97.9934 36.0643 109.713C22.7719 121.28 12.7915 136.712 7.20221 154.343C6.51508 156.492 5.88516 158.73 5.33005 160.993C4.81329 163.096 4.84979 165.296 5.43604 167.381C6.02225 169.466 7.13824 171.364 8.67542 172.889V172.894L8.82053 173.043C9.1698 173.39 9.53751 173.723 9.91336 174.033L10.3553 174.397C14.0795 177.464 17.021 179.887 20.5415 181.769C22.8895 183.015 25.3866 183.958 27.9728 184.574C42.1741 188.035 56.5958 191.244 70.8372 194.113C98.4948 199.688 126.881 204.287 155.208 207.782C199.616 213.256 244.318 216.001 289.063 216ZM354.723 13.7019C354.81 13.7011 354.897 13.707 354.983 13.7195C383.029 18.2579 406.49 36.1269 419.347 62.7443C422.316 68.9235 424.672 75.3789 426.381 82.0179C431.262 101.402 431.418 121.674 426.835 141.13C424.38 151.809 420.296 162.047 414.726 171.484C406.394 185.404 395.474 196.373 383.148 203.207C365.502 212.992 346.434 213.676 327.994 214.338C270.32 216.398 212.574 213.885 155.297 206.824C126.989 203.331 98.6209 198.735 70.9815 193.163C56.7497 190.297 42.3381 187.09 28.1464 183.631C25.6225 183.031 23.1854 182.111 20.894 180.895C17.4445 179.051 14.531 176.651 10.8425 173.613L10.4006 173.25C10.0775 172.983 9.76031 172.698 9.45679 172.401L9.36972 172.31C6.33853 169.256 5.15982 165.226 6.13574 161.255V161.254C6.68491 159.015 7.30811 156.802 7.98831 154.674C19.4061 118.659 48.9429 93.2065 81.4868 91.338L82.3096 91.2947C108.93 90.1005 132.224 86.7925 153.521 81.1808C178.945 74.4821 201.14 64.3983 219.491 51.2101C262.985 19.9568 308.951 6.85707 352.423 13.3247C352.829 13.3948 353.229 13.4983 353.618 13.6343L353.918 13.7183C354.089 13.726 354.26 13.7239 354.43 13.7122C354.53 13.7071 354.628 13.7019 354.723 13.7019Z" fill="#F0F0F0"/>
<path d="M296.373 70.3752C297.577 69.2204 298.809 62.7807 300.346 62.1269C299.197 64.6655 300.031 65.3376 300.037 68.1237C300.023 69.7057 300.207 71.2833 300.587 72.8191H326.625V52.5039C326.625 50.6785 326.266 48.871 325.567 47.1846C324.868 45.4981 323.844 43.9658 322.553 42.6751C321.262 41.3843 319.729 40.3605 318.042 39.662C316.355 38.9634 314.547 38.604 312.722 38.604C312.025 38.6176 311.332 38.7189 310.661 38.9056C308.423 39.5097 306.383 40.6915 304.746 42.3325C303.109 43.9736 301.932 46.0161 301.334 48.2552C299.349 55.5086 296.192 67.5824 296.373 70.3752Z" fill="#2F2E41"/>
<path d="M325.097 95.3668L325.084 79.5322L334.395 80.364L331.109 90.3508L332.647 115.453C333.393 115.62 334.074 116.001 334.607 116.549C335.14 117.096 335.502 117.787 335.65 118.537C335.797 119.287 335.723 120.063 335.436 120.772C335.15 121.48 334.663 122.09 334.036 122.527C333.409 122.964 332.668 123.208 331.904 123.232C331.14 123.255 330.385 123.055 329.733 122.657C329.08 122.259 328.558 121.68 328.229 120.99C327.9 120.3 327.779 119.53 327.88 118.772L325.097 95.3668Z" fill="#FFB6B6"/>
<path d="M306.775 208.521L303.013 208.52L301.224 194.016H306.775L306.775 208.521Z" fill="#FFB6B6"/>
<path d="M308.048 206.666L302.102 206.311V208.858L296.449 212.761C296.17 212.954 295.96 213.231 295.849 213.551C295.738 213.872 295.733 214.22 295.834 214.544C295.935 214.868 296.137 215.151 296.41 215.352C296.684 215.553 297.014 215.661 297.354 215.661H304.433L305.653 213.142L306.129 215.661H308.798L308.048 206.666Z" fill="#2F2E41"/>
<path d="M328.524 208.521L324.762 208.52L322.973 194.016H328.524L328.524 208.521Z" fill="#FFB6B6"/>
<path d="M329.797 206.666L323.851 206.311V208.858L318.198 212.761C317.919 212.954 317.709 213.231 317.598 213.551C317.487 213.872 317.482 214.22 317.583 214.544C317.684 214.868 317.886 215.151 318.159 215.352C318.433 215.553 318.763 215.661 319.103 215.661H326.182L327.402 213.142L327.878 215.661H330.547L329.797 206.666Z" fill="#2F2E41"/>
<path d="M310.124 62.4326L317.916 62.5854L323.417 68.3897L327.826 69.0363C329.821 69.3288 331.655 70.2969 333.021 71.7788C334.388 73.2607 335.204 75.1666 335.334 77.178L334.57 81.3731H329.986L327.335 96.9379C328.366 99.5645 328.436 101.638 326.32 102.452L319.75 114.825L300.346 106.118C299.362 104.427 299.046 102.728 300.052 101.076L298.665 77.249H294.001C294.001 72.7926 295.509 69.0357 299.939 68.5398C301.698 68.3495 303.466 68.2484 305.235 68.237L310.124 62.4326Z" fill="#E6E6E6"/>
<path d="M300.346 106.118C300.346 106.118 319.291 109.478 326.32 102.452C326.32 102.452 327.033 103.663 328.108 105.672C328.417 106.249 329.015 106.64 329.375 107.34C329.703 107.976 330.546 108.758 330.903 109.479C331.19 110.059 330.73 110.817 331.028 111.444C334.628 118.991 338.833 129.637 337.931 136.667C337.35 141.201 336.149 151.75 334.885 163.08C334.786 163.965 335.586 165.102 335.487 165.995C335.393 166.836 334.4 167.432 334.306 168.276C334.244 168.835 334.938 169.407 334.876 169.966C334.808 170.58 333.984 171.181 333.916 171.792C332.184 187.437 330.598 202.043 330.598 202.043H321.736L320.064 168.684L321.43 156.524L318.222 131.932L313.791 155.302L313.221 168.455L308.538 202.654H300.346V169.547L299.735 167.827L300.346 165.622L299.735 163.245L300.346 160.657V106.118Z" fill="#2F2E41"/>
<path d="M307.732 57.9149C308.939 59.5178 310.657 60.6621 312.601 61.1591C314.545 61.6561 316.601 61.4763 318.43 60.6493C320.258 59.8222 321.751 58.3973 322.661 56.6091C323.571 54.8209 323.845 52.7761 323.438 50.8115C323.03 48.8469 321.966 47.0795 320.419 45.8005C318.873 44.5215 316.937 43.8072 314.93 43.7751C312.924 43.743 310.966 44.395 309.379 45.6239C307.793 46.8528 306.672 48.5852 306.202 50.5358C306.177 50.6416 306.155 50.7468 306.134 50.8561C305.886 52.0787 305.9 53.3401 306.176 54.5569C306.451 55.7737 306.982 56.9182 307.732 57.9149Z" fill="#FFB6B6"/>
<path d="M309.574 52.8767C309.761 51.9366 310.235 51.0775 310.931 50.4175C310.862 51.3184 310.987 52.2236 311.298 53.0723C313.621 53.2779 315.954 52.8158 318.023 51.7403C319.582 50.6833 321.565 50.7749 323.875 51.7403C323.875 50.617 323.654 49.5046 323.224 48.4668C322.794 47.4289 322.164 46.4859 321.369 45.6916C320.575 44.8972 319.631 44.2672 318.593 43.8374C317.555 43.4075 316.443 43.1864 315.319 43.1865H313.791C311.522 43.1869 309.346 44.0883 307.741 45.6923C306.137 47.2964 305.235 49.4718 305.235 51.7403C306.645 52.2459 308.097 52.6262 309.574 52.8767Z" fill="#2F2E41"/>
<path d="M376.418 161.898C362.842 161.898 351.837 150.896 351.837 137.324C351.837 123.753 362.842 112.75 376.418 112.75C389.993 112.75 400.998 123.753 400.998 137.324C400.998 150.896 389.993 161.898 376.418 161.898Z" fill="#F0F0F0"/>
<path d="M219.778 49.1476C206.202 49.1476 195.197 38.1455 195.197 24.5738C195.197 11.0021 206.202 0 219.778 0C233.353 0 244.358 11.0021 244.358 24.5738C244.358 38.1455 233.353 49.1476 219.778 49.1476Z" fill="#F0F0F0"/>
<path d="M24.5804 165.753C11.005 165.753 -3.8147e-06 154.751 -3.8147e-06 141.179C-3.8147e-06 127.607 11.005 116.605 24.5804 116.605C38.1558 116.605 49.1608 127.607 49.1608 141.179C49.1608 154.751 38.1558 165.753 24.5804 165.753Z" fill="#F0F0F0"/>
<path d="M175.437 27.2539V82.9767C175.436 84.1342 175.893 85.2449 176.707 86.0677C177.522 86.8904 178.628 87.3587 179.786 87.3708C179.802 87.3724 179.818 87.3731 179.834 87.3728H186.321C191.512 87.3728 196.49 85.3114 200.16 81.6421C203.83 77.9728 205.892 72.9961 205.892 67.807V27.2539C205.892 26.088 205.429 24.9699 204.604 24.1455C203.779 23.3211 202.661 22.8579 201.495 22.8579H198.866C200.084 26.4094 183.556 27.9046 182.649 22.8579H179.834C178.668 22.8579 177.549 23.3211 176.724 24.1455C175.9 24.9699 175.437 26.088 175.437 27.2539Z" fill="#422AD2"/>
<path d="M194.688 18.6909C194.688 18.5381 194.627 18.3917 194.519 18.2837C194.411 18.1757 194.264 18.1149 194.112 18.1147H190.193C190.04 18.1152 189.894 18.1761 189.787 18.2841C189.679 18.3921 189.618 18.5383 189.618 18.6909C189.618 18.8434 189.679 18.9896 189.787 19.0976C189.894 19.2056 190.04 19.2665 190.193 19.267H194.112C194.264 19.2668 194.411 19.206 194.519 19.098C194.627 18.99 194.688 18.8436 194.688 18.6909Z" fill="#3F3D56"/>
<path d="M178.487 94.4406H203.268C205.191 94.4385 207.034 93.674 208.394 92.3149C209.753 90.9558 210.518 89.113 210.52 87.1909V48.2384C210.656 48.1407 210.767 48.012 210.844 47.8629C210.92 47.7139 210.96 47.5488 210.959 47.3813V43.4638C210.96 43.2963 210.92 43.1312 210.844 42.9822C210.767 42.8332 210.656 42.7045 210.52 42.6069V41.5555C210.656 41.4578 210.767 41.3292 210.844 41.1801C210.92 41.0311 210.96 40.866 210.959 40.6986V36.7808C210.96 36.6134 210.92 36.4483 210.844 36.2993C210.767 36.1503 210.656 36.0216 210.52 35.924V34.0237C210.688 33.9335 210.829 33.7993 210.926 33.6355C211.024 33.4717 211.075 33.2845 211.075 33.0939V29.1763C211.075 28.9856 211.024 28.7984 210.926 28.6346C210.829 28.4708 210.688 28.3366 210.52 28.2463V23.0392C210.518 21.1171 209.753 19.2744 208.394 17.9153C207.034 16.5562 205.191 15.7917 203.268 15.7896H178.487C176.565 15.7917 174.722 16.5562 173.362 17.9153C172.003 19.2744 171.238 21.1172 171.236 23.0393V34.3895C171.105 34.4712 170.998 34.5847 170.923 34.7194C170.848 34.8541 170.809 35.0056 170.809 35.1596V42.6295C170.809 42.7835 170.848 42.935 170.923 43.0697C170.998 43.2045 171.105 43.318 171.236 43.3998V87.1909C171.238 89.113 172.003 90.9557 173.362 92.3148C174.722 93.674 176.565 94.4385 178.487 94.4406ZM203.268 16.7532C204.935 16.7551 206.534 17.418 207.712 18.5964C208.891 19.7749 209.554 21.3726 209.556 23.0393V29.066L210.02 29.0839C210.044 29.0848 210.067 29.0948 210.084 29.112C210.101 29.1292 210.11 29.1522 210.111 29.1764V33.0938C210.11 33.1179 210.101 33.1409 210.084 33.1581C210.067 33.1753 210.044 33.1854 210.02 33.1863L209.556 33.204V36.6006L209.923 36.6909C209.943 36.6958 209.961 36.7073 209.975 36.7236C209.988 36.7398 209.995 36.76 209.995 36.7808V40.6986C209.995 40.7195 209.988 40.7396 209.975 40.7559C209.961 40.7721 209.943 40.7836 209.923 40.7885L209.556 40.8788V43.2835L209.923 43.3739C209.943 43.3788 209.961 43.3902 209.975 43.4065C209.988 43.4228 209.995 43.4429 209.995 43.4638V47.3813C209.995 47.4022 209.988 47.4224 209.975 47.4387C209.961 47.455 209.943 47.4665 209.923 47.4714L209.556 47.5617V87.1909C209.554 88.8575 208.891 90.4553 207.712 91.6338C206.534 92.8122 204.935 93.4751 203.268 93.4769H178.487C176.82 93.475 175.222 92.8121 174.044 91.6337C172.865 90.4553 172.202 88.8575 172.2 87.1909V42.5747H171.773V35.2146H172.2V23.0392C172.202 21.3727 172.865 19.7749 174.044 18.5964C175.222 17.418 176.82 16.7551 178.487 16.7532L203.268 16.7532Z" fill="#3F3D56"/>
<path d="M188.003 19.267C187.685 19.267 187.427 19.009 187.427 18.6909C187.427 18.3727 187.685 18.1147 188.003 18.1147C188.321 18.1147 188.579 18.3727 188.579 18.6909C188.579 19.009 188.321 19.267 188.003 19.267Z" fill="#3F3D56"/>
<path d="M313.361 130.291H377.842C378.758 130.288 379.635 129.924 380.283 129.277C380.931 128.629 381.295 127.752 381.298 126.837V95.4259C381.296 94.5105 380.931 93.6332 380.283 92.9858C379.636 92.3385 378.758 91.9737 377.843 91.9712H313.362C312.446 91.9735 311.568 92.3382 310.921 92.9855C310.273 93.6328 309.908 94.51 309.906 95.4255V126.836C309.908 127.752 310.273 128.629 310.92 129.276C311.568 129.924 312.445 130.288 313.361 130.291Z" fill="white"/>
<path d="M313.361 130.291H377.842C378.758 130.288 379.635 129.924 380.283 129.277C380.931 128.629 381.295 127.752 381.298 126.837V95.4259C381.296 94.5105 380.931 93.6332 380.283 92.9858C379.636 92.3385 378.758 91.9737 377.843 91.9712H313.362C312.446 91.9735 311.568 92.3382 310.921 92.9855C310.273 93.6328 309.908 94.51 309.906 95.4255V126.836C309.908 127.752 310.273 128.629 310.92 129.276C311.568 129.924 312.445 130.288 313.361 130.291ZM377.842 92.9349C378.503 92.9368 379.135 93.2 379.602 93.6668C380.069 94.1337 380.332 94.7663 380.334 95.4264V126.836C380.332 127.496 380.069 128.129 379.602 128.596C379.135 129.062 378.502 129.325 377.842 129.327H313.362C312.702 129.325 312.069 129.062 311.602 128.595C311.135 128.129 310.872 127.496 310.87 126.836V95.426C310.872 94.7658 311.135 94.1333 311.602 93.6665C312.069 93.1997 312.702 92.9367 313.362 92.9349L377.842 92.9349Z" fill="#3F3D56"/>
<path d="M342.146 125.649C354.863 125.649 368.123 125.527 373.071 125.448C373.722 125.435 374.342 125.168 374.798 124.704C375.255 124.239 375.512 123.615 375.514 122.964V96.9636C375.514 96.7305 375.421 96.507 375.257 96.342C375.092 96.177 374.869 96.0838 374.636 96.083H316.57C316.337 96.0833 316.114 96.1758 315.948 96.3404C315.783 96.505 315.69 96.7282 315.689 96.9613V114.602C315.7 117.482 316.84 120.243 318.863 122.292C320.887 124.342 323.633 125.517 326.513 125.565C331.124 125.625 336.584 125.649 342.146 125.649Z" fill="#422AD2"/>
<path d="M320.017 112.982H372.484C372.923 112.981 373.351 112.844 373.71 112.591C374.069 112.338 374.342 111.981 374.491 111.567L380.429 94.912C380.543 94.5908 380.579 94.2468 380.533 93.9089C380.487 93.571 380.36 93.2492 380.164 92.9703C379.968 92.6915 379.707 92.4638 379.405 92.3064C379.102 92.149 378.766 92.0666 378.425 92.0659L312.843 91.9746C312.531 91.9743 312.223 92.0423 311.94 92.1739C311.658 92.3055 311.407 92.4975 311.207 92.7363C311.007 92.9751 310.861 93.2549 310.781 93.556C310.7 93.8571 310.687 94.1722 310.742 94.4791L310.691 94.5005L310.879 94.9398L310.881 94.9442L318.06 111.691C318.224 112.074 318.496 112.401 318.844 112.63C319.192 112.86 319.6 112.982 320.017 112.982ZM312.84 92.9383L378.423 93.0296C378.61 93.0299 378.794 93.0751 378.96 93.1612C379.126 93.2474 379.268 93.3721 379.376 93.5249C379.483 93.6776 379.553 93.8539 379.578 94.039C379.603 94.2241 379.584 94.4125 379.521 94.5885L373.583 111.243C373.501 111.47 373.352 111.665 373.155 111.804C372.958 111.943 372.724 112.018 372.483 112.018H320.017C319.789 112.018 319.566 111.951 319.375 111.826C319.185 111.7 319.036 111.521 318.946 111.311L311.767 94.5645C311.691 94.387 311.66 94.1935 311.677 94.0012C311.694 93.8089 311.759 93.6238 311.865 93.4627C311.972 93.3015 312.116 93.1692 312.286 93.0777C312.456 92.9862 312.646 92.9383 312.84 92.9383Z" fill="#3F3D56"/>
<path d="M345.7 116.607C343.431 116.607 341.591 114.768 341.591 112.5C341.591 110.231 343.431 108.393 345.7 108.393C347.969 108.393 349.808 110.231 349.808 112.5C349.808 114.768 347.969 116.607 345.7 116.607Z" fill="white"/>
<path d="M190.506 80.9512C188.237 80.9512 186.398 79.1124 186.398 76.844C186.398 74.5757 188.237 72.7368 190.506 72.7368C192.775 72.7368 194.614 74.5757 194.614 76.844C194.614 79.1124 192.775 80.9512 190.506 80.9512Z" fill="white"/>
<path d="M35.1211 136.418L46.0955 125.587C46.6297 125.055 47.2636 124.634 47.9608 124.348C48.658 124.062 49.4048 123.916 50.1585 123.919H50.197C50.9564 123.922 51.7077 124.074 52.4076 124.369C53.1075 124.663 53.7421 125.094 54.2745 125.635C56.7284 128.118 58.124 131.455 58.168 134.945C58.2121 138.435 56.9011 141.806 54.5107 144.349C54.395 144.475 54.2745 144.595 54.154 144.716C53.4866 145.379 52.7497 145.969 51.9562 146.474C49.7866 147.876 47.2567 148.617 44.6737 148.609H44.5917C42.8188 148.603 41.0647 148.245 39.4308 147.557C37.7969 146.869 36.3157 145.864 35.0729 144.6C33.9959 143.508 33.3962 142.033 33.4052 140.499C33.4143 138.966 34.0313 137.498 35.1211 136.418ZM35.7572 143.921C37.7948 145.973 40.4777 147.26 43.3537 147.565C46.2298 147.871 49.1232 147.176 51.5465 145.597C52.2397 145.139 52.8869 144.614 53.4792 144.031C55.8439 141.697 57.1841 138.518 57.2049 135.196C57.2256 131.873 55.9254 128.678 53.5901 126.314C53.1462 125.862 52.6168 125.503 52.0326 125.257C51.4484 125.011 50.8212 124.884 50.1874 124.883H50.1585C49.531 124.881 48.9092 125.002 48.3287 125.24C47.7481 125.479 47.2202 125.829 46.7751 126.271L35.8006 137.107C34.8921 138.006 34.3773 139.228 34.3692 140.505C34.361 141.782 34.8603 143.011 35.7572 143.921Z" fill="#3F3D56"/>
<path d="M71.129 100.868L82.1034 90.0314C83.1836 88.96 84.6447 88.3604 86.1664 88.3643H86.2001C86.9605 88.3673 87.7127 88.5209 88.4134 88.8161C89.114 89.1114 89.7493 89.5424 90.2824 90.0844C92.311 92.1441 93.6264 94.7993 94.0358 97.6607C94.4452 100.522 93.927 103.439 92.5573 105.985L92.5525 105.99C91.9874 107.031 91.2856 107.992 90.4656 108.847C90.374 108.953 90.268 109.059 90.1619 109.165C87.6417 111.666 84.2325 113.066 80.6816 113.059H80.5948C78.8217 113.051 77.0675 112.693 75.4337 112.004C73.7999 111.315 72.3188 110.309 71.076 109.045C70.5423 108.504 70.1204 107.864 69.8343 107.161C69.5482 106.458 69.4034 105.705 69.4084 104.945C69.4133 104.186 69.5678 103.435 69.863 102.736C70.1582 102.036 70.5884 101.401 71.129 100.868ZM71.7652 108.37C72.9188 109.543 74.2935 110.477 75.8098 111.116C77.3261 111.755 78.954 112.088 80.5997 112.095H80.6816C83.153 112.094 85.5689 111.362 87.6255 109.992C89.6822 108.622 91.2877 106.675 92.2401 104.395C93.1926 102.115 93.4495 99.6047 92.9785 97.1793C92.5075 94.7539 91.3298 92.5218 89.5932 90.7638C88.6947 89.8557 87.4724 89.341 86.1947 89.3329C84.9169 89.3247 83.6882 89.8238 82.7782 90.7205L71.8037 101.552C70.8958 102.452 70.3819 103.675 70.3747 104.953C70.3675 106.231 70.8675 107.46 71.7652 108.37Z" fill="#3F3D56"/>
<path d="M34.4196 139.824L46.5186 127.877C47.312 127.096 48.3831 126.661 49.497 126.668C50.6108 126.674 51.6764 127.123 52.46 127.914C53.4403 128.904 54.2158 130.078 54.7421 131.368C55.2684 132.658 55.5353 134.038 55.5274 135.432C55.5195 136.825 55.2371 138.202 54.6962 139.486C54.1554 140.77 53.3667 141.935 52.3753 142.914C51.3839 143.893 50.2092 144.667 48.9184 145.191C47.6276 145.716 46.246 145.981 44.8526 145.972C43.4592 145.962 42.0813 145.679 40.7977 145.136C39.5141 144.594 38.35 143.804 37.3719 142.812L34.4196 139.824Z" fill="#422AD2"/>
<path d="M70.4253 104.272L82.5243 92.3251C83.3177 91.5435 84.3888 91.1084 85.5026 91.1153C86.6165 91.1222 87.6821 91.5706 88.4657 92.362C89.446 93.352 90.2215 94.5255 90.7478 95.8154C91.2741 97.1053 91.541 98.4862 91.5331 99.8793C91.5252 101.272 91.2428 102.65 90.7019 103.934C90.161 105.218 89.3723 106.382 88.3809 107.361C87.3895 108.34 86.2149 109.114 84.9241 109.639C83.6333 110.164 82.2516 110.429 80.8582 110.42C79.4648 110.41 78.087 110.126 76.8034 109.584C75.5198 109.042 74.3557 108.252 73.3776 107.26L70.4253 104.272Z" fill="#422AD2"/>
<path d="M47.7149 147.265L48.0041 148.026C49.3633 147.51 50.6806 146.993 51.9562 146.474C74.5509 137.257 85.3374 126.468 92.5525 105.99L92.5573 105.985C92.8995 105.022 93.232 104.036 93.555 103.027L92.7934 102.781C92.5388 103.751 92.1666 104.687 91.6849 105.566C91.2897 106.689 90.8832 107.783 90.4655 108.848C83.6842 126.131 73.6834 136.009 54.5107 144.35C53.5467 144.769 52.5587 145.185 51.5466 145.598C50.3713 146.363 49.0762 146.926 47.7149 147.265Z" fill="#3F3D56"/>
<path d="M82.3045 112.182L82.982 112.868L57.9495 137.585L57.272 136.899L82.3045 112.182Z" fill="#3F3D56"/>
<path d="M294.234 91.7012L294.221 75.8667L303.532 76.6985L300.246 86.6853L312.173 104.761C312.919 104.928 313.6 105.309 314.133 105.857C314.667 106.404 315.029 107.095 315.176 107.845C315.323 108.595 315.249 109.371 314.963 110.08C314.676 110.788 314.189 111.398 313.562 111.835C312.935 112.272 312.194 112.516 311.43 112.54C310.666 112.563 309.912 112.363 309.259 111.965C308.607 111.567 308.084 110.988 307.755 110.298C307.426 109.608 307.305 108.838 307.407 108.08L294.234 91.7012Z" fill="#FFB6B6"/>
</g>
<defs>
<clipPath id="clip0_30_94">
<rect width="431" height="216" fill="white" transform="matrix(-1 0 0 1 431 0)"/>
</clipPath>
</defs>
</svg>
