<svg width="525" height="479" viewBox="0 0 525 479" fill="none" xmlns="http://www.w3.org/2000/svg">
<g clip-path="url(#clip0_24_39)">
<path d="M517.66 118.072H7.33102C5.38722 118.074 3.52354 118.848 2.14909 120.224C0.77463 121.6 0.00170744 123.466 0 125.412V471.659C0.00170522 473.606 0.774629 475.472 2.14909 476.848C3.52354 478.224 5.38722 478.998 7.33102 479H517.66C518.72 479 519.768 478.77 520.73 478.325C521.692 477.88 522.547 477.232 523.235 476.424C523.293 476.361 523.346 476.293 523.394 476.222C523.832 475.686 524.186 475.087 524.445 474.446C524.814 473.563 525.003 472.616 525 471.659V125.412C524.998 123.465 524.224 121.598 522.847 120.221C521.471 118.845 519.606 118.072 517.66 118.072ZM522.907 471.66C522.908 472.684 522.606 473.685 522.041 474.538C521.538 475.29 520.856 475.903 520.057 476.323C519.316 476.706 518.494 476.905 517.66 476.904H7.33102C5.94239 476.902 4.6111 476.349 3.62918 475.366C2.64727 474.383 2.09489 473.05 2.0932 471.66V125.412C2.09488 124.022 2.64727 122.689 3.62918 121.706C4.6111 120.723 5.94238 120.17 7.33102 120.168H517.66C519.05 120.168 520.384 120.72 521.367 121.703C522.351 122.687 522.905 124.021 522.907 125.412V471.66Z" fill="#3F3D56"/>
<path d="M523.949 147.492H1.04474V149.591H523.949V147.492Z" fill="#3F3D56"/>
<path d="M18.8591 140.106C22.3316 140.106 25.1465 137.287 25.1465 133.81C25.1465 130.333 22.3316 127.515 18.8591 127.515C15.3867 127.515 12.5717 130.333 12.5717 133.81C12.5717 137.287 15.3867 140.106 18.8591 140.106Z" fill="#3F3D56"/>
<path d="M36.9355 140.106C40.4079 140.106 43.2229 137.287 43.2229 133.81C43.2229 130.333 40.4079 127.515 36.9355 127.515C33.463 127.515 30.648 130.333 30.648 133.81C30.648 137.287 33.463 140.106 36.9355 140.106Z" fill="#3F3D56"/>
<path d="M55.0118 140.106C58.4842 140.106 61.2992 137.287 61.2992 133.81C61.2992 130.333 58.4842 127.515 55.0118 127.515C51.5393 127.515 48.7244 130.333 48.7244 133.81C48.7244 137.287 51.5393 140.106 55.0118 140.106Z" fill="#3F3D56"/>
<path d="M232.866 325.886C226.578 321.787 223.45 312.263 224.991 303.552C226.531 294.841 232.334 287.338 239.29 284.102C242.673 282.576 246.383 281.914 250.085 282.178C253.787 282.441 257.366 283.621 260.5 285.612C266.878 289.517 275.9 291.657 278.929 299.47C281.257 305.475 278.304 317.668 275.171 323.5C272.463 328.541 267.318 330.846 262.483 331.848C257.135 332.94 251.615 332.87 246.296 331.641C240.977 330.412 235.984 328.054 231.654 324.726L232.866 325.886Z" fill="#2F2E41"/>
<path d="M229.586 372.151L224.558 380.83L223.894 381.975L222.927 383.659H208.105L209.106 381.975L211.695 377.606L217.732 367.403L224.567 370.139L229.586 372.151Z" fill="#FFB8B8"/>
<path d="M206.995 383.658L204.288 381.975L203.952 381.764L220.943 350.761C221.674 349.419 222.663 348.236 223.854 347.279C225.044 346.322 226.413 345.612 227.879 345.188C229.731 344.636 231.692 344.564 233.58 344.978C234.681 345.211 235.741 345.608 236.724 346.156C237.129 346.378 237.519 346.626 237.893 346.897C239.329 347.906 240.51 349.238 241.34 350.786C242.327 352.599 242.815 354.642 242.753 356.706C242.691 358.769 242.081 360.779 240.986 362.529L234.437 373.01L228.838 381.975L227.787 383.658H206.995Z" fill="#2F2E41"/>
<path d="M250.65 336.889C262.054 336.889 271.299 327.633 271.299 316.214C271.299 304.795 262.054 295.539 250.65 295.539C239.246 295.539 230.001 304.795 230.001 316.214C230.001 327.633 239.246 336.889 250.65 336.889Z" fill="#FFB8B8"/>
<path d="M271.379 383.658H224.962L225.172 383.061C225.054 382.699 224.945 382.337 224.844 381.975C224.735 381.596 224.642 381.209 224.559 380.83C223.804 377.306 223.807 373.662 224.567 370.139C227.131 357.529 237.363 347.284 237.363 347.284C237.54 347.15 237.716 347.023 237.893 346.897C239.415 345.781 241.066 344.854 242.811 344.136C250.411 340.979 258.382 342.25 263.737 343.883C265.602 344.448 267.425 345.143 269.193 345.963C269.815 346.257 270.152 346.442 270.152 346.442L270.681 362.613L271.32 381.975L271.379 383.658Z" fill="#422AD2"/>
<path d="M292.852 381.975L289.304 363.91L285.722 345.693C285.573 344.941 285.2 344.251 284.652 343.715C284.105 343.179 283.408 342.821 282.653 342.688L275.154 341.392L268.176 340.188C267.503 340.066 266.81 340.132 266.171 340.377C265.532 340.621 264.972 341.036 264.552 341.577C264.028 342.231 263.74 343.044 263.737 343.883C263.737 344.402 263.843 344.914 264.048 345.39C267.688 353.892 267.756 367.353 266.831 381.975C266.789 382.53 266.755 383.094 266.713 383.658H293.188L292.852 381.975Z" fill="#2F2E41"/>
<path d="M242.811 344.136C242.657 343.523 242.353 342.959 241.926 342.493C241.5 342.027 240.964 341.675 240.368 341.468C239.772 341.261 239.134 341.206 238.511 341.307C237.888 341.408 237.3 341.663 236.8 342.048L233.58 344.978L220.397 356.999C219.986 357.368 219.664 357.825 219.455 358.337C217.967 361.898 215.067 368.927 211.695 377.606C211.149 379.02 210.585 380.476 210.005 381.975C209.803 382.53 209.585 383.094 209.366 383.658H231.091C231.268 383.094 231.444 382.53 231.621 381.975C232.587 378.919 233.529 375.922 234.437 373.01C237.094 364.549 239.49 356.864 241.34 350.786C241.853 349.103 242.321 347.548 242.744 346.123C242.941 345.478 242.964 344.792 242.811 344.136Z" fill="#2F2E41"/>
<path d="M297.728 383.658H299.132L298.939 383.187L298.426 381.975L290.514 363.178L289.304 363.91L279.585 369.794L284.57 381.975L285.26 383.658H293.188H297.728Z" fill="#FFB8B8"/>
<path d="M289.707 348.269C288.637 345.464 286.525 343.181 283.812 341.9C281.1 340.618 277.997 340.436 275.154 341.392C274.791 341.512 274.434 341.653 274.086 341.813C272.095 342.702 270.397 344.142 269.193 345.963C268.702 346.69 268.298 347.472 267.991 348.294C267.445 349.721 267.188 351.242 267.232 352.769C267.277 354.297 267.624 355.8 268.252 357.192L270.682 362.613L279.375 381.975L280.131 383.658H297.728L298.939 383.187L302.083 381.975L302.52 381.806L289.707 348.269Z" fill="#2F2E41"/>
<path d="M266.868 292.468C267.588 292.684 268.359 292.656 269.061 292.39C269.764 292.123 270.359 291.631 270.754 290.992C271.128 290.34 271.349 289.61 271.398 288.86C271.447 288.109 271.324 287.357 271.038 286.662C270.452 285.273 269.529 284.054 268.352 283.114C267.015 281.903 265.388 281.06 263.629 280.666C262.75 280.477 261.841 280.479 260.963 280.672C260.085 280.865 259.259 281.245 258.54 281.786C257.835 282.345 257.312 283.102 257.038 283.96C256.765 284.818 256.753 285.738 257.005 286.603C257.54 288.156 258.988 289.196 260.434 289.97C263.304 291.504 266.468 292.405 269.715 292.612L266.868 292.468Z" fill="#2F2E41"/>
<path d="M270.885 315.596C267.565 316.055 267.991 314.363 266.662 311.283C265.332 308.203 263.552 304.546 260.216 304.234C257.481 303.979 255.228 306.168 253.013 307.793C249.065 310.69 243.744 312.108 239.167 310.37C234.59 308.632 231.409 303.17 233.146 298.588C233.686 297.323 234.481 296.182 235.48 295.237C236.478 294.291 237.66 293.561 238.952 293.092C241.544 292.169 244.297 291.786 247.043 291.967C253.148 292.162 259.136 293.697 264.584 296.462C268.344 298.375 272.004 301.112 273.43 305.086C274.857 309.06 275.795 314.644 271.717 315.719L270.885 315.596Z" fill="#2F2E41"/>
<path d="M265.171 281.538C263.53 278.678 264.885 274.754 267.57 272.843C270.255 270.932 273.856 270.745 277.06 271.511C280.229 272.31 283.132 273.93 285.478 276.207C287.824 278.484 289.531 281.338 290.428 284.484C291.788 289.486 290.979 294.857 292.131 299.911C292.745 302.604 293.903 305.144 295.533 307.373C297.164 309.602 299.234 311.472 301.614 312.87C303.995 314.268 306.635 315.163 309.374 315.501C312.113 315.838 314.892 315.61 317.54 314.832C320.989 313.818 324.493 311.352 324.833 307.77C325.19 311.884 324.253 316.007 322.153 319.562C320.053 323.116 316.896 325.924 313.123 327.593C308.68 329.449 303.723 329.57 298.91 329.446C295.774 329.366 292.566 329.177 289.672 327.962C287.67 327.047 285.871 325.742 284.379 324.123C282.887 322.503 281.733 320.602 280.985 318.53C279.511 314.366 279.114 309.896 279.828 305.537C280.302 302.146 281.244 298.822 281.507 295.409C281.771 291.995 281.271 288.35 279.169 285.649C277.067 282.948 273.052 281.569 270.063 283.233C268.862 283.902 267.893 284.995 266.588 285.426C265.283 285.858 263.434 285.099 263.553 283.728L265.171 281.538Z" fill="#2F2E41"/>
<path d="M406.083 383.658L406.242 381.975L410.984 332.578C412.538 331.36 414.208 330.297 415.97 329.404C425.731 324.48 435.147 326.837 440.242 328.874C441.592 329.403 442.897 330.043 444.143 330.785L446.918 381.975L447.01 383.658H406.083Z" fill="#422AD2"/>
<path d="M428.289 319.432C439.693 319.432 448.938 310.175 448.938 298.756C448.938 287.337 439.693 278.081 428.289 278.081C416.885 278.081 407.64 287.337 407.64 298.756C407.64 310.175 416.885 319.432 428.289 319.432Z" fill="#FFB8B8"/>
<path d="M445.043 311.363C446.578 309.743 447.597 307.703 447.971 305.502C448.344 303.301 448.055 301.038 447.141 299.002C446.227 296.965 444.728 295.247 442.835 294.066C440.943 292.885 438.743 292.294 436.514 292.369C433.658 292.464 430.968 293.634 428.243 294.493C424.113 295.9 419.707 296.297 415.392 295.651C411.052 294.977 407.135 292.661 404.449 289.182C401.894 285.666 401.097 280.79 402.902 276.835C404.986 272.27 409.853 269.754 414.432 267.71C416.278 266.784 418.25 266.136 420.285 265.784C421.305 265.615 422.348 265.658 423.35 265.911C424.352 266.164 425.291 266.621 426.108 267.254C427.395 268.362 428.149 270.028 429.549 270.988C431.125 272.069 433.173 272.04 435.074 272.231C439.356 272.66 443.405 274.384 446.684 277.174C449.964 279.964 452.317 283.687 453.431 287.849C454.545 292.011 454.367 296.413 452.922 300.471C451.476 304.529 448.83 308.05 445.337 310.566L445.043 311.363Z" fill="#2F2E41"/>
<path d="M419.047 337.957L415.97 329.405L415.778 328.872C415.687 328.619 415.539 328.39 415.347 328.203C415.155 328.015 414.922 327.874 414.667 327.79C414.412 327.706 414.142 327.681 413.876 327.717C413.61 327.754 413.356 327.85 413.132 327.999L409.639 330.331C409.639 330.331 387.233 330.331 385.434 343.791C385.409 344.001 385.375 344.237 385.35 344.49C385.349 344.501 385.346 344.512 385.342 344.523C385.115 345.407 380.886 361.772 377.254 381.975C377.153 382.53 377.052 383.094 376.951 383.658H425.638C427.223 363.364 426.336 344.494 419.047 337.957Z" fill="#2F2E41"/>
<path d="M477.125 381.975C474.469 361.25 470.668 344.489 470.668 344.489C470.635 344.237 470.601 344.001 470.576 343.791C468.785 330.33 446.379 330.33 446.379 330.33L442.888 328C442.665 327.851 442.41 327.755 442.144 327.718C441.878 327.682 441.607 327.707 441.352 327.792C441.097 327.876 440.865 328.017 440.672 328.205C440.48 328.392 440.333 328.621 440.242 328.874L436.972 337.957C429.682 344.494 428.796 363.363 430.38 383.658L477.335 383.658C477.268 383.094 477.192 382.53 477.125 381.975Z" fill="#2F2E41"/>
<path d="M82.7506 334.784L77.7566 381.975L77.5801 383.658H64.0696C64.2293 383.111 64.389 382.547 64.5573 381.975C68.3911 368.809 73.612 349.591 73.0484 344.498C72.1658 336.551 78.3453 333.9 78.3453 333.9L78.7321 333.976L82.7506 334.784Z" fill="#422AD2"/>
<path d="M104.54 320.218C115.944 320.218 125.189 310.961 125.189 299.542C125.189 288.124 115.944 278.867 104.54 278.867C93.1355 278.867 83.8904 288.124 83.8904 299.542C83.8904 310.961 93.1355 320.218 104.54 320.218Z" fill="#A0616A"/>
<path d="M131.27 373.641C130.228 375.563 129.375 377.582 128.722 379.668C128.479 380.409 128.243 381.183 128.025 381.975C127.865 382.522 127.722 383.086 127.579 383.658H73.1157C73.1916 383.103 73.2586 382.539 73.3345 381.975C76.1174 359.962 78.3703 337.62 78.732 333.976C78.7656 333.63 78.7825 333.454 78.7825 333.454C111.42 316.23 135.238 338.757 135.238 338.757C135.238 338.757 135.272 338.917 135.322 339.228C135.844 342.377 138.5 360.761 131.27 373.641Z" fill="#422AD2"/>
<path d="M128.722 379.668L125.091 371.873L125.973 340.962L135.322 339.228L135.65 339.169C140.483 341.982 144.222 346.349 146.26 351.561C148.076 356.106 151.532 369.777 154.449 381.975C154.584 382.539 154.718 383.103 154.853 383.658H130.58L129.798 381.975L128.722 379.668Z" fill="#422AD2"/>
<path d="M161.94 244.762H42.5383C39.9772 244.765 37.5219 245.785 35.7109 247.598C33.8999 249.412 32.8811 251.87 32.878 254.434V373.986C32.8811 376.55 33.8999 379.009 35.7109 380.822C37.5219 382.635 39.9772 383.655 42.5383 383.658H161.94C164.502 383.657 166.958 382.637 168.769 380.823C170.58 379.01 171.599 376.551 171.6 373.986V254.434C171.599 251.87 170.58 249.41 168.769 247.597C166.958 245.783 164.502 244.764 161.94 244.762ZM169.919 373.986C169.917 376.104 169.076 378.135 167.58 379.633C166.084 381.131 164.056 381.973 161.94 381.975H42.5383C40.4232 381.971 38.3957 381.129 36.9 379.631C35.4044 378.134 34.5627 376.104 34.5595 373.986V254.434C34.5627 252.317 35.4044 250.286 36.9 248.789C38.3957 247.292 40.4232 246.449 42.5383 246.446H161.94C164.056 246.447 166.084 247.29 167.58 248.788C169.076 250.285 169.917 252.316 169.919 254.434V373.986ZM77.7566 381.975L77.5801 383.658H127.579C127.722 383.086 127.865 382.522 128.024 381.975H77.7566Z" fill="#3F3D56"/>
<path d="M322.194 244.762H202.792C200.231 244.765 197.775 245.785 195.964 247.598C194.153 249.412 193.135 251.87 193.131 254.434V373.986C193.135 376.55 194.153 379.009 195.964 380.822C197.775 382.635 200.231 383.655 202.792 383.658H322.194C324.755 383.657 327.211 382.637 329.022 380.823C330.834 379.01 331.852 376.551 331.854 373.986V254.434C331.852 251.87 330.834 249.41 329.022 247.597C327.211 245.783 324.755 244.764 322.194 244.762ZM330.172 373.986C330.17 376.104 329.329 378.135 327.833 379.633C326.337 381.131 324.309 381.973 322.194 381.975H202.792C200.677 381.971 198.649 381.129 197.153 379.631C195.658 378.134 194.816 376.104 194.813 373.986V254.434C194.816 252.317 195.658 250.286 197.153 248.789C198.649 247.292 200.677 246.449 202.792 246.446H322.194C324.309 246.447 326.337 247.29 327.833 248.788C329.329 250.285 330.17 252.316 330.172 254.434V373.986ZM224.844 381.975C224.945 382.337 225.055 382.699 225.172 383.061L224.962 383.658H266.713C266.755 383.094 266.789 382.53 266.831 381.975H224.844Z" fill="#3F3D56"/>
<path d="M482.456 244.762H363.054C360.492 244.764 358.036 245.783 356.225 247.597C354.413 249.41 353.395 251.87 353.393 254.434V373.986C353.395 376.551 354.413 379.01 356.225 380.824C358.036 382.637 360.492 383.657 363.054 383.658H482.456C485.017 383.655 487.472 382.635 489.283 380.822C491.094 379.009 492.112 376.55 492.116 373.986V254.434C492.112 251.87 491.094 249.412 489.283 247.599C487.472 245.785 485.017 244.765 482.456 244.762ZM490.434 373.986C490.431 376.104 489.589 378.134 488.094 379.631C486.598 381.129 484.571 381.971 482.456 381.975H363.054C360.938 381.973 358.91 381.131 357.414 379.633C355.918 378.135 355.077 376.104 355.075 373.986V254.434C355.077 252.316 355.918 250.285 357.414 248.787C358.91 247.29 360.938 246.447 363.054 246.446H482.456C484.571 246.449 486.598 247.292 488.094 248.789C489.589 250.287 490.431 252.317 490.434 254.434V373.986ZM425.764 381.975C425.722 382.53 425.68 383.094 425.638 383.658H461.866C461.933 383.103 462.009 382.539 462.076 381.975H425.764Z" fill="#3F3D56"/>
<path d="M401.219 432.482H123.775C121.991 432.482 120.28 431.773 119.019 430.51C117.757 429.247 117.049 427.534 117.049 425.748C117.049 423.962 117.757 422.249 119.019 420.986C120.28 419.723 121.991 419.014 123.775 419.014H401.219C403.003 419.014 404.714 419.723 405.975 420.986C407.236 422.249 407.945 423.962 407.945 425.748C407.945 427.534 407.236 429.247 405.975 430.51C404.714 431.773 403.003 432.482 401.219 432.482Z" fill="#CCCCCC"/>
<path d="M323.45 209.407H201.543C199.759 209.407 198.049 208.697 196.787 207.434C195.526 206.171 194.817 204.458 194.817 202.672C194.817 200.886 195.526 199.173 196.787 197.91C198.049 196.648 199.759 195.938 201.543 195.938H323.45C325.234 195.938 326.945 196.648 328.206 197.91C329.468 199.173 330.176 200.886 330.176 202.672C330.176 204.458 329.468 206.171 328.206 207.434C326.945 208.697 325.234 209.407 323.45 209.407Z" fill="#422AD2"/>
<path d="M114.417 317.555C115.116 318.246 116.041 318.661 117.021 318.723C118.001 318.786 118.971 318.493 119.752 317.898C124.619 314.286 128.891 309.789 131.42 304.305C134.317 298.021 134.64 290.31 131.147 284.338C128.194 279.289 122.98 276.031 117.783 273.356C115.765 272.215 113.591 271.377 111.331 270.866C109.047 270.361 106.656 270.748 104.646 271.946C103.663 272.563 102.888 273.463 102.423 274.528C101.958 275.593 101.824 276.773 102.039 277.915C99.5428 275.063 96.3455 272.914 92.7641 271.681C90.5089 270.798 88.0395 270.618 85.6806 271.167C82.3828 272.103 79.9751 275.037 78.6583 278.206C77.5934 280.617 77.2256 283.278 77.5969 285.887C77.7923 287.186 78.2578 288.429 78.9631 289.536C79.6685 290.643 80.5981 291.59 81.6918 292.314C84.4185 294.003 87.897 293.882 91.0283 293.191C94.1597 292.501 97.1908 291.301 100.383 290.998C103.575 290.694 107.129 291.491 109.072 294.045C110.44 295.844 110.791 298.194 111.098 300.434L112.695 312.083C112.826 313.768 113.256 315.417 113.965 316.951C114.088 317.172 114.24 317.375 114.417 317.555Z" fill="#2F2E41"/>
</g>
<defs>
<clipPath id="clip0_24_39">
<rect width="525" height="517" fill="white" transform="translate(0 -38)"/>
</clipPath>
</defs>
</svg>
