<svg width="29" height="33" viewBox="0 0 29 33" fill="none" xmlns="http://www.w3.org/2000/svg">
<path d="M0 6.1875C0 5.04668 0.92567 4.125 2.07143 4.125H26.9286C28.0743 4.125 29 5.04668 29 6.1875C29 7.32832 28.0743 8.25 26.9286 8.25H2.07143C0.92567 8.25 0 7.32832 0 6.1875ZM0 16.5C0 15.3592 0.92567 14.4375 2.07143 14.4375H26.9286C28.0743 14.4375 29 15.3592 29 16.5C29 17.6408 28.0743 18.5625 26.9286 18.5625H2.07143C0.92567 18.5625 0 17.6408 0 16.5ZM29 26.8125C29 27.9533 28.0743 28.875 26.9286 28.875H2.07143C0.92567 28.875 0 27.9533 0 26.8125C0 25.6717 0.92567 24.75 2.07143 24.75H26.9286C28.0743 24.75 29 25.6717 29 26.8125Z" fill="white"/>
</svg>
