<svg width="39" height="31" viewBox="0 0 39 31" fill="none" xmlns="http://www.w3.org/2000/svg">
<g clip-path="url(#clip0_24_95)">
<path d="M23.9363 0.0723934C22.9004 -0.224286 21.8218 0.375128 21.5232 1.40442L13.7232 28.5294C13.4246 29.5587 14.0279 30.6304 15.0638 30.9271C16.0998 31.2238 17.1783 30.6243 17.4769 29.5951L25.2769 2.47005C25.5755 1.44075 24.9723 0.369073 23.9363 0.0723934ZM28.8479 7.34407C28.0862 8.10091 28.0862 9.33001 28.8479 10.0868L34.2896 15.4997L28.8418 20.9126C28.0801 21.6695 28.0801 22.8986 28.8418 23.6554C29.6035 24.4122 30.8405 24.4122 31.6022 23.6554L38.4272 16.8742C39.189 16.1173 39.189 14.8882 38.4272 14.1314L31.6022 7.35013C30.8405 6.59329 29.6035 6.59329 28.8418 7.35013L28.8479 7.34407ZM10.1583 7.34407C9.39663 6.58724 8.15959 6.58724 7.39788 7.34407L0.572876 14.1253C-0.188843 14.8822 -0.188843 16.1113 0.572876 16.8681L7.39788 23.6493C8.15959 24.4062 9.39663 24.4062 10.1583 23.6493C10.9201 22.8925 10.9201 21.6634 10.1583 20.9066L4.71053 15.4997L10.1583 10.0868C10.9201 9.33001 10.9201 8.10091 10.1583 7.34407Z" fill="#EDF6FF"/>
</g>
<defs>
<clipPath id="clip0_24_95">
<rect width="39" height="31" fill="white"/>
</clipPath>
</defs>
</svg>
