<svg width="75" height="66" viewBox="0 0 75 66" fill="none" xmlns="http://www.w3.org/2000/svg">
<g clip-path="url(#clip0_20_18)">
<path d="M8.33333 0C3.73698 0 0 3.69961 0 8.25V45.375C0 49.9254 3.73698 53.625 8.33333 53.625H31.25L29.8568 57.75H20.8333C18.5286 57.75 16.6667 59.5934 16.6667 61.875C16.6667 64.1566 18.5286 66 20.8333 66H54.1667C56.4714 66 58.3333 64.1566 58.3333 61.875C58.3333 59.5934 56.4714 57.75 54.1667 57.75H45.1432L43.75 53.625H66.6667C71.263 53.625 75 49.9254 75 45.375V8.25C75 3.69961 71.263 0 66.6667 0H8.33333ZM66.6667 8.25V37.125H8.33333V8.25H66.6667Z" fill="#1F57E4"/>
</g>
<defs>
<clipPath id="clip0_20_18">
<rect width="75" height="66" fill="white"/>
</clipPath>
</defs>
</svg>
