<svg width="37" height="40" viewBox="0 0 37 40" fill="none" xmlns="http://www.w3.org/2000/svg">
<path d="M34.3571 2.5H2.6346C1.18103 2.5 0 3.63281 0 5.02344V34.9766C0 36.3672 1.18103 37.5 2.6346 37.5H34.3571C35.8107 37.5 37 36.3672 37 34.9766V5.02344C37 3.63281 35.8107 2.5 34.3571 2.5ZM11.1826 32.5H5.69866V15.7969H11.1908V32.5H11.1826ZM8.44062 13.5156C6.68147 13.5156 5.26094 12.1641 5.26094 10.5078C5.26094 8.85156 6.68147 7.5 8.44062 7.5C10.1915 7.5 11.6203 8.85156 11.6203 10.5078C11.6203 12.1719 10.1998 13.5156 8.44062 13.5156ZM31.7391 32.5H26.2551V24.375C26.2551 22.4375 26.2138 19.9453 23.4058 19.9453C20.5482 19.9453 20.1105 22.0547 20.1105 24.2344V32.5H14.6266V15.7969H19.8875V18.0781H19.9618C20.6969 16.7656 22.4891 15.3828 25.1567 15.3828C30.7067 15.3828 31.7391 18.8438 31.7391 23.3438V32.5Z" fill="white"/>
</svg>
