<svg width="31" height="36" viewBox="0 0 31 36" fill="none" xmlns="http://www.w3.org/2000/svg">
<path d="M0 15.1875C0 10.5258 3.71585 6.75 8.30357 6.75H8.85714C10.0819 6.75 11.0714 7.75547 11.0714 9C11.0714 10.2445 10.0819 11.25 8.85714 11.25H8.30357C6.1654 11.25 4.42857 13.0148 4.42857 15.1875V15.75H8.85714C11.2998 15.75 13.2857 17.768 13.2857 20.25V24.75C13.2857 27.232 11.2998 29.25 8.85714 29.25H4.42857C1.98594 29.25 0 27.232 0 24.75V22.5V20.25V15.1875ZM17.7143 15.1875C17.7143 10.5258 21.4301 6.75 26.0179 6.75H26.5714C27.7962 6.75 28.7857 7.75547 28.7857 9C28.7857 10.2445 27.7962 11.25 26.5714 11.25H26.0179C23.8797 11.25 22.1429 13.0148 22.1429 15.1875V15.75H26.5714C29.0141 15.75 31 17.768 31 20.25V24.75C31 27.232 29.0141 29.25 26.5714 29.25H22.1429C19.7002 29.25 17.7143 27.232 17.7143 24.75V22.5V20.25V15.1875Z" fill="#1F57E4"/>
</svg>
