<svg width="42" height="42" viewBox="0 0 42 42" fill="none" xmlns="http://www.w3.org/2000/svg">
<path d="M21 0C21.3773 0 21.7547 0.0820313 22.0992 0.237891L37.5457 6.79219C39.3504 7.55508 40.6957 9.33516 40.6875 11.4844C40.6465 19.6219 37.2996 34.5105 23.1656 41.2781C21.7957 41.9344 20.2043 41.9344 18.8344 41.2781C4.70037 34.5105 1.35349 19.6219 1.31248 11.4844C1.30427 9.33516 2.64959 7.55508 4.45427 6.79219L19.909 0.237891C20.2453 0.0820313 20.6226 0 21 0ZM21 5.47969V36.4875C32.3203 31.0078 35.3636 18.8754 35.4375 11.5992L21 5.47969Z" fill="white"/>
</svg>
