<svg width="22" height="23" viewBox="0 0 22 23" fill="none" xmlns="http://www.w3.org/2000/svg">
<path d="M21.1969 4.29492C22.0433 3.44043 22.0433 2.05273 21.1969 1.19824C20.3506 0.34375 18.9761 0.34375 18.1297 1.19824L11 8.40332L3.86357 1.20508C3.01722 0.350586 1.64274 0.350586 0.796387 1.20508C-0.0499675 2.05957 -0.0499675 3.44727 0.796387 4.30176L7.93285 11.5L0.803158 18.7051C-0.0431965 19.5596 -0.0431965 20.9473 0.803158 21.8018C1.64951 22.6563 3.02399 22.6563 3.87035 21.8018L11 14.5967L18.1365 21.7949C18.9828 22.6494 20.3573 22.6494 21.2037 21.7949C22.05 20.9404 22.05 19.5527 21.2037 18.6982L14.0672 11.5L21.1969 4.29492Z" fill="#1F57E4"/>
</svg>
